<?xml version="1.0" encoding="UTF-8" standalone="no"?>
<!-- Created by Vectric (http://www.vectric.com/) -->

<svg
   xmlns:dc="http://purl.org/dc/elements/1.1/"
   xmlns:cc="http://creativecommons.org/ns#"
   xmlns:rdf="http://www.w3.org/1999/02/22-rdf-syntax-ns#"
   xmlns:svg="http://www.w3.org/2000/svg"
   xmlns="http://www.w3.org/2000/svg"
   xmlns:sodipodi="http://sodipodi.sourceforge.net/DTD/sodipodi-0.dtd"
   xmlns:inkscape="http://www.inkscape.org/namespaces/inkscape"
   width="8.249999in"
   height="3.75in"
   viewBox="0 0 8.2499989 3.7500001"
   id="svg2"
   version="1.1"
   inkscape:version="0.91 r13725"
   sodipodi:docname="Cardstock Parts.svg"
   inkscape:export-filename="E:\User Data\Chris\Google Drive\TEC Hub Foundation\TEC Hubs\Resources for Hubs\TEC Hub Kits\Airplanes\TEC Glider\Cardstock Parts.png"
   inkscape:export-xdpi="300"
   inkscape:export-ydpi="300">
  <metadata
     id="metadata15">
    <rdf:RDF>
      <cc:Work
         rdf:about="">
        <dc:format>image/svg+xml</dc:format>
        <dc:type
           rdf:resource="http://purl.org/dc/dcmitype/StillImage" />
        <dc:title></dc:title>
      </cc:Work>
    </rdf:RDF>
  </metadata>
  <defs
     id="defs13" />
  <sodipodi:namedview
     pagecolor="#ffffff"
     bordercolor="#666666"
     borderopacity="1"
     objecttolerance="10"
     gridtolerance="10"
     guidetolerance="10"
     inkscape:pageopacity="0"
     inkscape:pageshadow="2"
     inkscape:window-width="1280"
     inkscape:window-height="657"
     id="namedview11"
     showgrid="false"
     inkscape:document-units="in"
     fit-margin-top="0"
     fit-margin-left="0"
     fit-margin-right="0"
     fit-margin-bottom="0"
     inkscape:zoom="0.40146385"
     inkscape:cx="-89.395993"
     inkscape:cy="210.9581"
     inkscape:window-x="-8"
     inkscape:window-y="-8"
     inkscape:window-maximized="1"
     inkscape:current-layer="b8056177-3396-411e-bc6a-f8b378c13f4c" />
  <g
     inkscape:groupmode="layer"
     id="85667243-1302-4a85-b3ac-c7bf39b332ec"
     inkscape:label="Toolpath Previews"
     transform="translate(2.7508698,-2.173409)" />
  <g
     inkscape:groupmode="layer"
     id="b8056177-3396-411e-bc6a-f8b378c13f4c"
     inkscape:label="Import - -utball-wappable-_1359780412"
     transform="translate(2.7508698,-2.173409)">
    <rect
       style="opacity:1;fill:#ffffff;fill-opacity:1;stroke:none;stroke-opacity:1"
       id="rect4143"
       width="3.75"
       height="8.25"
       x="-5.923409"
       y="-2.75087"
       transform="matrix(0,-1,1,0,0,0)" />
    <path
       style="fill:#000000;fill-opacity:1;stroke:none;stroke-width:0.01;stroke-linecap:round;stroke-linejoin:round;stroke-opacity:1"
       d="m -2.6253701,4.5614992 c -0.0202,-0.068927 -0.03426,-0.3459789 -0.04366,-0.9155159 l -0.00525,-0.245503 2.35282198,1.0632699 a 0.2,0.2 0 0 1 0.124287,0.182004 l 0.00626,0.507022 a 0.2,0.2 0 0 1 -0.196856,0.203096 L -1.7452451,5.2625552 a 0.2,0.2 0 0 1 -0.199519,-0.162645 l -0.061259,-0.555994 -0.033395,4.96e-4 -6.72e-4,0.580088 c -0.170309,-6.29e-4 -0.473852,-0.182777 -0.585282,-0.563001"
       id="path5"
       inkscape:connector-curvature="0" />
    <path
       style="fill:#000000;fill-opacity:1;stroke:none;stroke-width:0.01;stroke-linecap:round;stroke-linejoin:round;stroke-opacity:1"
       d="m -0.49560012,3.2516815 -0.04,0 0,0.728325 -0.161555,-0.00262 -1.73466698,-0.597871 a 0.2,0.2 0 0 1 -0.178044,-0.198792 l 0,-0.40789 a 0.2,0.2 0 0 1 0.197778,-0.199988 l 1.50017598,0.038199 a 0.2,0.2 0 0 1 0.167674,0.087622 l 0.034444,0.233954 0.013391,3.6e-5 3e-6,-0.258474 0.360127,0 4.2e-5,0.258474 0.013018,10e-6 0.036252,-0.234 a 0.2,0.2 0 0 1 0.167673,-0.087622 L 1.3808889,2.5728455 a 0.2,0.2 0 0 1 0.197778,0.199988 l 0,0.40789 a 0.2,0.2 0 0 1 -0.178045,0.198793 l -1.73724502,0.598302 -0.158977,0.00219 0,-0.728325"
       id="path7"
       inkscape:connector-curvature="0" />
    <path
       style="fill:#000000;fill-opacity:1;stroke:none;stroke-width:0.01;stroke-linecap:round;stroke-linejoin:round;stroke-opacity:1"
       d="m 0.52013298,5.9041923 -0.215,0 -0.07795,-0.130171 -0.261903,-0.044916 0,-1.4499999 0.243476,0.02691 0.096377,-0.389061 0.215,0 0.215,0 0.096377,0.389061 0.24347502,-0.02691 0,1.4499999 -0.26190202,0.044916 -0.07795,0.130171 -0.215,0"
       id="path9"
       inkscape:connector-curvature="0" />
    <path
       inkscape:connector-curvature="0"
       style="fill:#000000;fill-opacity:1;stroke:none;stroke-width:0.01;stroke-linecap:round;stroke-linejoin:round;stroke-opacity:1"
       d="m 5.3860135,3.3703866 c 0.0202,0.068927 0.03426,0.345979 0.04366,0.915516 l 0.00525,0.2455031 -2.3528216,-1.0632701 a 0.2,0.2 0 0 1 -0.124287,-0.182004 l -0.00626,-0.507022 a 0.2,0.2 0 0 1 0.196856,-0.203096 l 1.357479,0.093317 a 0.2,0.2 0 0 1 0.199519,0.162645 l 0.061259,0.555994 0.033395,-4.96e-4 6.72e-4,-0.580088 c 0.1703089,6.29e-4 0.4738516,0.182777 0.5852815,0.563001"
       id="path5-4" />
    <path
       inkscape:connector-curvature="0"
       style="fill:#000000;fill-opacity:1;stroke:none;stroke-width:0.01;stroke-linecap:round;stroke-linejoin:round;stroke-opacity:1"
       d="m 3.2734338,4.8092402 0.04,0 0,-0.728325 0.161555,0.00262 1.7346667,0.597871 a 0.2,0.2 0 0 1 0.1780439,0.198791 l 0,0.40789 A 0.2,0.2 0 0 1 5.1899215,5.4880752 L 3.6897458,5.4498762 a 0.2,0.2 0 0 1 -0.167674,-0.087622 l -0.034444,-0.233954 -0.013391,-3.33e-5 -3e-6,0.258474 -0.360127,0 -4.44e-5,-0.258474 -0.013018,-10e-6 -0.036252,0.234 a 0.2,0.2 0 0 1 -0.167673,0.087622 l -1.500177,0.038199 a 0.2,0.2 0 0 1 -0.197778,-0.199988 l 0,-0.40789 a 0.2,0.2 0 0 1 0.178045,-0.198792 l 1.737245,-0.598302 0.158977,-0.00219 0,0.728325"
       id="path7-9" />
    <path
       inkscape:connector-curvature="0"
       style="fill:#000000;fill-opacity:1;stroke:none;stroke-width:0.01;stroke-linecap:round;stroke-linejoin:round;stroke-opacity:1"
       d="m 2.2709605,2.1905658 0.215,0 0.07795,0.130171 0.261903,0.044916 0,1.45 -0.243476,-0.02691 -0.096377,0.389061 -0.215,0 -0.215,0 -0.096377,-0.389061 -0.243475,0.02691 0,-1.45 0.261902,-0.044916 0.07795,-0.130171 0.215,0"
       id="path9-9" />
  </g>
</svg>
